<?xml version="1.0" encoding="UTF-8" standalone="no"?>
<!-- Created with Inkscape (http://www.inkscape.org/) -->

<svg
   xmlns:dc="http://purl.org/dc/elements/1.1/"
   xmlns:cc="http://creativecommons.org/ns#"
   xmlns:rdf="http://www.w3.org/1999/02/22-rdf-syntax-ns#"
   xmlns:svg="http://www.w3.org/2000/svg"
   xmlns="http://www.w3.org/2000/svg"
   xmlns:sodipodi="http://sodipodi.sourceforge.net/DTD/sodipodi-0.dtd"
   xmlns:inkscape="http://www.inkscape.org/namespaces/inkscape"
   id="svg3356"
   version="1.1"
   inkscape:version="0.91 r13725"
   width="1091.25"
   height="968.4375"
   viewBox="0 0 1091.25 968.4375"
   sodipodi:docname="SwainsonHawkSilhouette.svg">
  <metadata
     id="metadata3362">
    <rdf:RDF>
      <cc:Work
         rdf:about="">
        <dc:format>image/svg+xml</dc:format>
        <dc:type
           rdf:resource="http://purl.org/dc/dcmitype/StillImage" />
        <dc:title></dc:title>
      </cc:Work>
    </rdf:RDF>
  </metadata>
  <defs
     id="defs3360" />
  <sodipodi:namedview
     pagecolor="#ffffff"
     bordercolor="#666666"
     borderopacity="1"
     objecttolerance="10"
     gridtolerance="10"
     guidetolerance="10"
     inkscape:pageopacity="0"
     inkscape:pageshadow="2"
     inkscape:window-width="1600"
     inkscape:window-height="837"
     id="namedview3358"
     showgrid="false"
     inkscape:zoom="0.69183608"
     inkscape:cx="545.625"
     inkscape:cy="484.21875"
     inkscape:window-x="-8"
     inkscape:window-y="-8"
     inkscape:window-maximized="1"
     inkscape:current-layer="svg3356" />
  <path
     style="fill:#000000"
     d="m 43.759719,967.27584 c -14.43764,-1.49559 -15.110061,-4.41215 -3.915969,-16.98506 10.08407,-11.32622 10.068341,-11.65528 -0.239827,-5.01722 -13.04835,8.40272 -30.8208406,12.17128 -35.6818782,7.56628 l -2.1717051,-2.05734 4.8497657,-5.35528 c 2.6673711,-2.94544 5.9649516,-6.651 7.3279556,-8.23476 1.363004,-1.58371 3.553092,-3.95537 4.866861,-5.27034 5.664619,-5.66982 26.388516,-31.11369 25.811732,-31.69046 -0.210962,-0.21097 -1.368918,0.16654 -2.573236,0.83891 -1.204317,0.67236 -3.033418,1.29866 -4.064668,1.39177 -1.03125,0.0931 -3.140625,0.40885 -4.6875,0.70163 -1.546875,0.29278 -4.289063,0.76078 -6.09375,1.03999 -1.804688,0.27921 -4.546875,0.74748 -6.09375,1.04061 -23.1220404,4.38147 -24.7204411,0.70307 -5.625707,-12.94648 1.599561,-1.14342 17.509736,-14.67438 23.576042,-20.05046 3.16956,-2.80894 6.966435,-6.02302 8.4375,-7.1424 1.471066,-1.11939 4.099871,-3.25281 5.841789,-4.74093 l 3.167124,-2.70567 -3.635874,0.59178 c -8.25036,1.34282 -22.025842,2.1499 -24.91601,1.45976 -9.206558,-2.19842 -10.485742,-4.46954 -4.296007,-7.6273 2.175309,-1.10977 5.339327,-3.12225 7.031152,-4.47219 1.691824,-1.34993 3.497963,-2.50716 4.013643,-2.57162 0.515679,-0.0645 1.293855,-0.16992 1.72928,-0.23437 0.435425,-0.0645 2.017456,-1.18262 3.515625,-2.48482 1.498168,-1.3022 5.466131,-4.24519 8.817693,-6.54 3.351562,-2.29481 7.570312,-5.48337 9.375,-7.08568 5.505978,-4.88857 13.734552,-11.54587 17.031812,-13.77953 1.718441,-1.16413 5.655688,-4.02767 8.749438,-6.36344 3.09375,-2.33577 7.303819,-5.39112 9.355709,-6.78966 2.051894,-1.39854 6.420907,-5.07406 9.708921,-8.16781 3.28801,-3.09375 7.91737,-7.0041 10.28745,-8.68966 2.37009,-1.68557 4.54014,-3.37575 4.82234,-3.75597 0.28219,-0.38021 2.54568,-2.16518 5.02996,-3.96658 3.9079,-2.8337 17.06444,-13.63052 21.26437,-17.45046 2.09621,-1.90656 19.75681,-13.48108 20.56965,-13.48108 0.38624,0 1.46583,-0.84375 2.3991,-1.875 0.93327,-1.03125 2.0981,-1.875 2.58851,-1.875 0.49042,0 2.42894,-1.20028 4.30783,-2.66729 1.87888,-1.46701 5.3146,-3.77569 7.63491,-5.13039 2.32031,-1.3547 5.44452,-3.52942 6.94269,-4.83271 1.49818,-1.30329 3.07464,-2.36961 3.50326,-2.36961 0.42862,0 2.85421,-2.00391 5.3902,-4.45313 2.53598,-2.44921 5.60014,-5.32621 6.80924,-6.39333 3.0444,-2.6869 15.88937,-9.74922 23.76086,-13.064 3.75286,-1.58038 5.95123,-2.85643 17.34375,-10.06724 3.35156,-2.12135 11.15625,-6.44686 17.34375,-9.61224 6.1875,-3.1654 13.11026,-6.99243 15.38392,-8.50454 7.86675,-5.23181 9.0087,-5.9377 12.97545,-8.02066 2.19141,-1.15072 3.98438,-2.43931 3.98438,-2.86354 0,-0.42422 0.56743,-0.77132 1.26095,-0.77132 0.69352,0 2.06462,-0.88935 3.04687,-1.97633 0.98227,-1.08698 3.7297,-2.96205 6.1054,-4.16682 2.37572,-1.20477 5.53979,-3.21511 7.03125,-4.46742 1.49148,-1.25231 5.912,-4.16721 9.82337,-6.47757 3.91138,-2.31035 9.81763,-6.29946 13.125,-8.86469 6.2939,-4.88161 19.97303,-13.42217 21.49784,-13.42217 1.24225,0 14.04682,-12.20077 14.04682,-13.38444 0,-0.5334 1.05469,-2.35259 2.34375,-4.04264 2.83276,-3.71395 2.81828,-3.32908 0.23437,-6.22892 -1.16015,-1.30202 -3.58593,-4.27836 -5.39062,-6.61409 -1.80469,-2.33574 -4.44655,-4.94488 -5.8708,-5.79811 -1.42426,-0.85322 -3.4859,-3.31739 -4.58142,-5.47593 -3.49253,-6.88142 -7.13863,-11.82014 -15.79778,-21.39845 -1.28906,-1.42589 -3.297,-3.8238 -4.46209,-5.32869 -1.16508,-1.50489 -3.90727,-3.9497 -6.09375,-5.43293 -2.18647,-1.48323 -4.18635,-2.97278 -4.44416,-3.31013 -1.79497,-2.34869 -6.66599,-1.44451 -9.27597,1.72185 -4.31205,5.23126 -7.51,2.94128 -8.10149,-5.80127 -0.50876,-7.51979 6.75862,-18.48709 13.65968,-20.61398 1.27135,-0.39183 3.06625,-1.50382 3.98868,-2.4711 0.92243,-0.96727 2.05245,-1.75867 2.51116,-1.75867 0.45871,0 1.41632,-0.5823 2.12802,-1.294 1.74113,-1.74113 11.28114,-6.206 13.26024,-6.206 0.87074,0 2.51752,-0.56792 3.65954,-1.26205 1.14201,-0.69413 4.81858,-2.00635 8.17014,-2.91604 3.35156,-0.90969 6.9375,-2.03107 7.96875,-2.49193 9.46739,-4.23101 30.31868,-0.24578 58.59375,11.19881 6.12931,2.48089 7.87306,2.79116 13.59375,2.41877 14.72804,-0.95874 28.18097,-1.01076 29.61606,-0.11454 3.57321,2.23153 14.95951,-6.83554 48.60901,-38.70802 0.81657,-0.77344 3.56846,-3.09375 6.11532,-5.15625 2.54686,-2.0625 8.23717,-7.18742 12.64513,-11.3887 4.40796,-4.20129 9.9084,-9.26379 12.22318,-11.25 2.31479,-1.98622 5.26792,-4.82642 6.5625,-6.31158 1.29459,-1.48515 4.28681,-4.64921 6.64939,-7.03125 3.81713,-3.84857 20.19288,-24.71611 29.01519,-36.97394 1.78845,-2.48489 4.72828,-6.36875 6.53297,-8.63081 7.69745,-9.64824 10.0298,-12.84588 18.4455,-25.28872 2.4412,-3.60938 9.40921,-13.22096 15.48447,-21.35908 6.07526,-8.13811 13.4265,-18.47405 16.33609,-22.96875 2.90959,-4.4947 6.63144,-9.85967 8.27079,-11.92217 2.90925,-3.66017 10.52119,-15.29446 13.96747,-21.34823 0.94768,-1.66472 3.097,-4.50333 4.77626,-6.30802 1.67926,-1.80469 3.93615,-4.76501 5.01531,-6.57849 1.07915,-1.81349 3.04311,-4.3128 4.36435,-5.55404 1.32125,-1.24125 2.40226,-2.81609 2.40226,-3.49964 0,-0.68356 0.31641,-1.26639 0.70312,-1.29519 1.13655,-0.0847 9.23221,-10.89873 16.10296,-21.51014 6.3018,-9.7327 8.67262,-12.38549 15.06892,-16.86109 1.80469,-1.26277 3.76148,-2.73171 4.34843,-3.26431 0.58696,-0.53259 3.26027,-2.65585 5.94071,-4.71835 2.68043,-2.0625 7.4682,-5.81176 10.63947,-8.33168 3.17127,-2.51993 7.24795,-5.53607 9.0593,-6.70254 4.47243,-2.88016 11.97842,-10.34203 15.88446,-15.79109 3.84955,-5.37027 13.56765,-15.73847 28.08481,-29.96355 11.09819,-10.87491 25.11493,-25.19741 45.0747,-46.05801 10.3926,-10.86164 32.36185,-33.268843 52.4835,-53.529761 7.89181,-7.946427 9.30264,-8.237159 11.03703,-2.27443 3.20192,11.007946 2.07658,15.289817 -8.00626,30.463561 -6.98387,10.510069 -6.75488,10.766531 1.95063,2.184673 3.83414,-3.779695 7.56198,-7.334919 8.28407,-7.900498 0.7221,-0.565578 6.58634,-6.644 13.03165,-13.507602 11.64421,-12.399897 24.38803,-25.034979 33.19481,-32.911506 2.5306,-2.263287 6.96506,-6.43538 9.85435,-9.271317 2.88928,-2.835938 8.83434,-8.401823 13.21143,-12.368633 19.22935,-17.4273098 19.71966,-17.4817592 25.40438,-2.82163 1.03106,2.658942 1.10297,9.565263 0.0996,9.565263 -0.40443,0 -1.52915,1.371094 -2.49937,3.046875 -0.97022,1.675781 -2.85422,4.35775 -4.1865,5.959932 -4.91681,5.912466 -5.70375,6.967045 -5.70488,7.644535 -6.5e-4,0.380824 -0.94987,1.817119 -2.10937,3.191766 -1.1595,1.374648 -2.84653,3.383377 -3.74888,4.463842 -0.90234,1.080466 -1.64062,2.345775 -1.64062,2.811798 0,0.466024 -1.26563,2.041862 -2.8125,3.501865 -1.54688,1.460001 -2.8125,3.183261 -2.8125,3.829468 0,0.646206 -0.35063,1.174919 -0.77906,1.174919 -0.42853,0 -1.37775,1.160156 -2.10938,2.578125 -0.73172,1.417969 -2.80275,3.918204 -4.60237,5.55608 -1.79963,1.637875 -2.96616,3.283827 -2.59228,3.65767 0.37378,0.373844 1.79006,-0.430619 3.14709,-1.787695 1.35712,-1.357077 3.72778,-3.424903 5.26819,-4.595171 1.5404,-1.170268 5.1825,-4.380447 8.09362,-7.133732 2.91113,-2.753285 6.4321,-5.600932 7.82447,-6.328104 1.39238,-0.727173 2.86894,-1.872848 3.28125,-2.545946 0.41231,-0.673097 3.49191,-3.436847 6.84347,-6.141666 3.35156,-2.704818 7.1484,-5.88262 8.4375,-7.061781 1.2891,-1.179162 4.2422,-3.453775 6.5625,-5.054697 2.3203,-1.600921 6.75,-5.245296 9.8437,-8.09861 3.0938,-2.853315 5.9357,-5.197774 6.3155,-5.209909 0.3798,-0.01213 3.4257,-2.342377 6.7687,-5.178314 3.343,-2.8359375 6.4775,-5.15625 6.9658,-5.15625 0.4881,0 1.0464,-0.4766536 1.2406,-1.0592303 0.2107,-0.6320596 1.471,-0.095905 3.125,1.3294716 5.9687,5.1435227 3.7529,18.8310087 -4.8126,29.7297587 -2.2289,2.835937 -6.9024,8.953125 -10.3855,13.59375 -7.3919,9.848462 -6.8173,9.126984 -11.5725,14.53125 -4.1287,4.692018 -4.8265,6.49325 -1.6551,4.27191 1.146,-0.802675 2.6989,-1.45941 3.4509,-1.45941 0.752,0 4.3496,-2.248584 7.9946,-4.996853 3.6449,-2.74827 8.5256,-6.136369 10.8459,-7.529109 8.1117,-4.868972 21.7289,-14.47811 31.4062,-22.162173 13.8791,-11.020352 19.302,-12.779013 20.8309,-6.75548 1.4402,5.673989 0.1145,14.493406 -2.5657,17.068615 -0.2683,0.257812 -3.293,3.84375 -6.7214,7.96875 -3.4286,4.125 -7.7615,8.921077 -9.6288,10.65795 -1.8674,1.736872 -4.5387,4.689997 -5.9364,6.5625 -1.3976,1.872502 -4.301,5.09205 -6.452,7.15455 l -3.911,3.75 0.9279,7.327042 c 0.5814,4.59061 0.5982,7.741766 0.045,8.4375 -0.4856,0.610752 -1.1672,3.075889 -1.5147,5.478092 -0.618,4.273566 -10.7698,26.150036 -13.317,28.697176 -0.7083,0.70833 -1.2898,1.57414 -1.2921,1.92403 0,0.34988 -1.1626,1.90178 -2.5782,3.44866 -1.4156,1.54687 -3.8205,4.71094 -5.3444,7.03125 -1.5238,2.32031 -3.9325,5.33951 -5.3526,6.70932 -2.5334,2.44373 -2.5635,2.60246 -1.5968,8.4375 2.5841,15.59687 -1.0181,24.77196 -14.8842,37.9114 l -5.0411,4.77695 -0.8526,9.01115 c -1.2964,13.70371 -3.6995,20.7163 -9.63109,28.10518 -1.7461,2.17511 -3.45188,4.73004 -3.7906,5.67761 -0.33872,0.94758 -1.83169,2.18178 -3.31762,2.74268 -2.40263,0.90686 -2.66072,1.39093 -2.33091,4.37088 1.41356,12.77272 1.39978,18.49654 -0.0478,19.69768 -0.813,0.67471 -1.50741,1.70242 -1.54303,2.28381 -0.0675,1.0958 -10.20319,9.6454 -12.46313,10.5126 -0.98944,0.37967 -1.24997,2.83708 -1.14019,10.75269 0.0787,5.64331 -0.16087,10.26055 -0.53156,10.26055 -0.37059,0 -0.9104,0.74509 -1.19944,1.65574 -0.59671,1.88013 -14.42259,9.59426 -17.19562,9.59426 -3.97444,0 -7.01428,4.34516 -6.42263,9.18041 0.2971,2.42734 0.79904,7.5774 1.11544,11.44459 l 0.57535,7.03125 -4.071,2.38863 c -2.23913,1.31375 -5.54766,2.95591 -7.35235,3.64924 -1.80469,0.69334 -5.17969,2.1362 -7.5,3.20636 -2.32031,1.07016 -4.317,1.9872 -4.43709,2.03785 -0.12009,0.0506 0.23132,1.54073 0.78091,3.31126 2.00017,6.44371 2.74276,9.88328 3.22499,14.93791 l 0.49193,5.15625 -5.421,3.46078 c -2.98154,1.90344 -6.5643,3.89049 -7.96168,4.41569 -1.39737,0.5252 -3.39055,1.80477 -4.42927,2.8435 -1.03873,1.03872 -2.97917,2.1623 -4.31211,2.49685 -1.68804,0.42367 -2.25465,1.0483 -1.86709,2.05829 0.30604,0.79752 0.97506,3.38219 1.48672,5.74371 0.51165,2.36152 1.18657,4.92649 1.49983,5.69993 0.80989,1.99964 0.33307,8.73747 -0.69329,9.79687 -0.47456,0.48985 -0.86285,1.63434 -0.86285,2.54332 0,2.24988 -7.00125,8.81361 -11.96328,11.21569 l -4.05288,1.96196 0.13358,12.49162 c 0.11779,11.01523 -0.0714,12.69612 -1.6013,14.22191 -3.03751,3.02949 -9.97312,5.71687 -16.50049,6.39354 -6.16226,0.63882 -6.32813,0.72536 -6.32813,3.30113 0,7.73599 -3.713,18.07656 -6.15439,17.13971 -0.7314,-0.28066 -1.58943,0.16629 -1.90676,0.99323 -0.31713,0.82694 -1.30999,1.50352 -2.20616,1.50352 -0.89617,0 -2.30042,0.73828 -3.12055,1.64062 -0.82015,0.90235 -4.39677,3.10005 -7.94806,4.88377 l -6.45691,3.24313 -1.40228,6.8847 c -0.77126,3.78659 -1.04957,7.10269 -0.61849,7.36911 0.81687,0.50485 -8.11389,9.50791 -12.60101,12.70302 -1.4194,1.0107 -2.83406,2.84701 -3.14369,4.08069 -0.30963,1.23368 -1.12728,2.71139 -1.81698,3.28378 -0.6897,0.5724 -1.54739,2.37649 -1.90596,4.00908 -0.97632,4.44514 -3.0155,7.00217 -6.50162,8.15269 -1.7212,0.56805 -3.61268,1.61505 -4.20326,2.32667 -0.59059,0.71162 -2.31778,1.25848 -3.8382,1.21525 -3.67945,-0.10461 -3.54579,-0.3956 -4.21132,9.16809 -0.74859,10.75728 -4.4684,14.4769 -14.47762,14.4769 -1.06103,0 -1.86155,0.62852 -1.86155,1.46158 0,0.80387 -0.42266,1.20036 -0.93925,0.88108 -1.14943,-0.71038 -2.81075,3.39636 -2.81075,6.94807 0,1.43339 -0.84375,3.36975 -1.875,4.30302 -1.03125,0.93327 -1.875,2.20822 -1.875,2.83322 0,1.3286 -4.82416,4.55871 -12.42188,8.31732 -2.97053,1.46953 -5.39062,3.29618 -5.39062,4.06874 0,4.97456 -11.22289,17.12447 -15.81788,17.12447 -3.58025,0 -5.57456,2.25056 -6.59627,7.44382 -1.38325,7.03089 -4.18637,9.63953 -14.07852,13.10172 -7.62673,2.66929 -7.85038,2.83601 -10.72636,7.99558 -3.35809,6.02449 -9.4215,9.62899 -16.35875,9.72472 -6.39906,0.0883 -7.22691,1.05973 -4.42357,5.19068 1.30699,1.92596 2.37635,3.69872 2.37635,3.93947 0,0.24074 1.79297,2.99267 3.98437,6.11539 2.19141,3.1227 4.50884,6.64982 5.14984,7.83802 1.90514,3.53149 3.62169,4.43805 11.7357,6.19799 4.24811,0.92142 10.46603,2.34178 13.81759,3.15636 3.35156,0.81456 9.46875,2.12792 13.59375,2.91857 4.125,0.79064 8.34375,1.78992 9.375,2.22062 1.95227,0.81538 12.20771,3.8627 21.09375,6.26784 2.83594,0.76759 6,1.7688 7.03125,2.22492 1.03125,0.45612 6.72656,2.3658 12.65625,4.24372 14.87557,4.71106 22.78459,7.39646 30.46875,10.34521 3.60937,1.38509 8.25,3.14008 10.3125,3.89999 2.0625,0.7599 5.01562,1.94027 6.5625,2.62304 4.42585,1.95347 13.57394,3.25174 19.29457,2.73822 l 5.23206,-0.46967 1.22821,7.8953 c 1.66449,10.69982 1.52208,11.14923 -6.29287,19.85724 -0.92549,1.03125 -2.94085,4.32569 -4.47858,7.32097 -1.95912,3.81606 -4.1988,6.4548 -7.48339,8.81673 -2.57813,1.85393 -4.82813,3.72746 -5,4.16341 -0.17188,0.43595 -0.8637,0.79264 -1.53738,0.79264 -1.26144,0 -5.18137,7.37644 -5.18137,9.7502 0,1.46097 -4.64514,5.71198 -7.26056,6.64451 -0.90513,0.32272 -3.12225,2.44268 -4.92694,4.71102 -2.11273,2.65553 -4.47376,4.46967 -6.62987,5.09418 -2.22443,0.64431 -5.65993,3.35359 -10.2333,8.07011 -3.78656,3.90511 -8.53704,7.94318 -10.55661,8.97348 -2.01958,1.03031 -4.37553,3.19153 -5.23546,4.80272 -1.61339,3.02286 -2.81848,4.29541 -11.15045,11.77457 -2.69469,2.41888 -7.96812,7.43617 -11.71875,11.14954 -4.34928,4.3061 -8.34739,7.33814 -11.03806,8.37093 -4.15882,1.59634 -5.69448,2.88903 -10.3111,8.67973 -1.2883,1.61593 -3.18673,3.19948 -4.21875,3.51902 -1.03202,0.31954 -2.99622,1.36938 -4.36487,2.33299 -1.36866,0.9636 -3.40235,1.752 -4.51931,1.752 -1.11696,0 -4.00496,1.62831 -6.41777,3.61847 -6.67976,5.50962 -14.31163,8.33781 -17.14475,6.35343 -2.87183,-2.01152 -5.27616,-1.93632 -9.66718,0.30235 -3.87842,1.97733 -8.9692,3.19987 -12.73127,3.05739 -7.78169,-0.2947 -9.86058,-0.82021 -10.81456,-2.73371 -0.69935,-1.40275 -1.40184,-1.75004 -2.40472,-1.18881 -1.18048,0.66063 -1.75692,-0.91597 -3.45632,-9.4532 -2.02674,-10.18159 -6.18723,-20.31858 -10.94802,-26.67467 -1.15862,-1.54688 -2.42044,-3.86719 -2.80403,-5.15625 -0.38359,-1.28906 -1.64235,-3.82031 -2.79725,-5.625 -1.1549,-1.80469 -2.89683,-4.54688 -3.87094,-6.09375 -0.97412,-1.54688 -4.0342,-7.24219 -6.80016,-12.65625 -2.76597,-5.41406 -7.07464,-13.85156 -9.57481,-18.75 -2.50018,-4.89844 -6.00341,-12.49219 -7.78496,-16.875 -5.43636,-13.37408 -6.38566,-15.36547 -7.82726,-16.41959 -0.76403,-0.55867 -1.68031,-2.47172 -2.03618,-4.25122 -0.63672,-3.18383 -0.8261,-3.29624 -11.87329,-7.04707 -6.17444,-2.0964 -11.85906,-4.06315 -12.6325,-4.37056 -0.77344,-0.30741 -2.74222,-0.98377 -4.37508,-1.50302 l -2.96883,-0.94409 -2.0932,5.31465 c -1.15126,2.92306 -2.66295,5.78303 -3.3593,6.3555 -0.69635,0.57247 -1.26609,1.50543 -1.26609,2.07324 0,1.52659 -7.37268,3.23786 -11.79984,2.73885 -4.57284,-0.51542 -5.867,0.93594 -6.82262,7.65135 -0.52154,3.66496 -0.95993,4.35729 -2.93616,4.6369 -1.27769,0.18077 -3.38329,1.06726 -4.6791,1.96997 -1.29582,0.9027 -4.41819,2.41638 -6.9386,3.36374 l -4.58258,1.72246 -1.76972,-2.1855 -1.76971,-2.18551 -1.99609,4.7246 c -2.14828,5.08482 -6.09519,6.87852 -11.25148,5.1133 -6.20237,-2.12334 -8.50817,-1.04761 -9.62849,4.492 -1.60943,7.95814 -4.13476,12.1292 -8.95061,14.78362 -2.32031,1.27893 -5.22487,3.11644 -6.45456,4.08335 -1.22969,0.96692 -3.20008,1.75803 -4.37863,1.75803 -1.62024,0 -2.29398,0.68821 -2.76263,2.82194 -1.29793,5.90943 -5.25787,12.17806 -7.69297,12.17806 -0.72088,0 -2.86279,1.05469 -4.75983,2.34375 -1.89702,1.28906 -4.30042,2.35807 -5.34088,2.37556 -3.98292,0.0669 -9.02198,3.42216 -12.0193,8.00286 -3.44197,5.26023 -6.62035,7.10304 -13.3012,7.71196 -5.318,0.48469 -7.04,1.49025 -7.04,4.11099 0,0.99855 -0.33273,1.6099 -0.7394,1.35857 -0.40667,-0.25134 -1.69907,1.63491 -2.872,4.19167 -3.18424,6.94098 -7.84391,11.2094 -12.14193,11.12241 -7.87669,-0.15943 -9.66016,1.22209 -14.13808,10.95167 -0.94391,2.05093 -15.78802,6.3555 -18.42593,5.34323 -0.61806,-0.23717 -1.39012,0.54187 -1.71568,1.73118 -0.49994,1.82633 -0.74873,1.94385 -1.60083,0.75615 -0.8968,-1.25 -1.06979,-1.25 -1.55695,0 -1.74068,4.46649 -6.66888,7.63593 -10.88915,7.00306 -4.78183,-0.71708 -7.67302,0.46344 -8.64647,3.53052 -0.36625,1.15393 -1.71493,3.68327 -2.9971,5.62074 l -2.33118,3.52267 -7.68861,-0.31156 c -7.36087,-0.29828 -7.67383,-0.22813 -7.34223,1.64588 0.36325,2.05285 -2.21862,5.23879 -10.14457,12.5181 l -4.32386,3.97109 -5.05114,-0.95358 c -2.77812,-0.52448 -5.73016,-1.16702 -6.56008,-1.42789 -0.92572,-0.29097 -2.91871,0.93439 -5.15625,3.17023 -7.47206,7.46637 -11.90945,8.99379 -16.77231,5.77324 -3.65645,-2.42157 -3.85792,-2.38391 -5.01577,0.9375 -0.53925,1.54687 -1.39125,2.8125 -1.89334,2.8125 -0.5021,0 -3.74397,1.89844 -7.20416,4.21875 -3.4602,2.32031 -6.76275,4.22813 -7.339,4.2396 -0.57625,0.0114 -2.10242,0.84583 -3.39148,1.85415 -2.8321,2.21531 -5.94045,2.34206 -11.27528,0.45983 -4.92547,-1.73781 -8.88476,-0.64806 -14.44034,3.97454 -5.28975,4.40138 -11.84321,4.05816 -16.44272,-0.86128 -1.85049,-1.97925 -2.10396,-2.02818 -2.92733,-0.56512 -0.49948,0.88744 -1.51741,1.36528 -2.28288,1.07156 -0.75979,-0.29156 -1.38145,-0.12956 -1.38145,0.36 0,0.48966 -1.47656,1.68544 -3.28125,2.65725 -1.80469,0.97191 -3.28125,2.04188 -3.28125,2.37769 0,0.33581 -1.26562,1.13475 -2.8125,1.77553 -1.54687,0.64078 -2.8125,1.45594 -2.8125,1.81153 0,0.35559 -2.12748,1.19175 -4.72773,1.85822 -5.03685,1.29084 -6.70579,0.36778 -11.0039,-6.08606 -0.88749,-1.33257 -1.34006,-1.48332 -1.73619,-0.57825 -0.29469,0.67331 -1.02014,1.61615 -1.61211,2.09522 -9.96774,8.0669 -13.1208,9.03637 -20.87337,6.41765 -3.31576,-1.12003 -6.29624,-1.76878 -6.62329,-1.44168 -0.32705,0.327 -1.10732,0.16912 -1.73392,-0.35091 -0.78878,-0.65466 -2.25742,-0.39038 -4.77376,0.85903 -10.86849,5.39634 -13.52837,6.58856 -19.01803,8.52441 -5.83169,2.0565 -6.09158,2.06981 -8.82988,0.45225 -1.55174,-0.9166 -5.12019,-2.82619 -7.92988,-4.24341 l -5.10853,-2.57681 -4.61847,2.72315 C 107.9333,958.77459 105.48587,960 105.03472,960 c -0.45115,0 -2.01462,0.59128 -3.47437,1.314 -6.786741,3.36009 -10.091873,4.37072 -12.537323,3.83363 -1.42699,-0.3135 -2.860802,-0.13904 -3.18625,0.38756 -0.374386,0.60572 -1.751546,0.306 -3.749453,-0.81619 -1.736751,-0.97547 -3.391061,-1.54022 -3.676247,-1.25503 -0.285185,0.28509 -1.93004,-0.31434 -3.655234,-1.33228 l -3.136715,-1.85063 -4.637689,2.00991 c -2.550729,1.1055 -6.536126,2.55994 -8.856439,3.23212 -2.320312,0.67219 -4.851562,1.51247 -5.625,1.86732 -0.773437,0.35484 -4.706564,0.30328 -8.740281,-0.11457 z"
     id="path3366"
     inkscape:connector-curvature="0" />
</svg>
